999
"DXF R12 Output" (www.mydxf.blogspot.com)
 0 
SECTION
 2 
HEADER
 9 
$ACADVER
 1 
AC1009
 9 
$EXTMIN
 10 
 0 
 20 
 0 
 9 
$EXTMAX
 10 
 8.5 
 20 
 11 
 0 
ENDSEC
 0 
SECTION
 2 
ENTITIES
0
LINE
8
Layer 1
10
0.846666
20
84.666700
11
-0.846666
21
82.973300
0
LINE
8
Layer 1
10
0.000000
20
85.231100
11
0.000000
21
82.408900
0
LINE
8
Layer 1
10
2.257780
20
82.691100
11
1.128890
21
81.562210
0
LINE
8
Layer 1
10
1.693330
20
83.255600
11
0.564440
21
82.126710
0
LINE
8
Layer 1
10
1.128890
20
83.820000
11
0.000000
21
82.691110
0
LINE
8
0
10
-149.813000
20
-141.780000
11
-149.898744
21
-141.460000
0
LINE
8
0
10
-149.898744
20
-141.460000
11
-150.133000
21
-141.225744
0
LINE
8
0
10
-150.133000
20
-141.225744
11
-150.453000
21
-141.140000
0
LINE
8
0
10
-150.453000
20
-141.140000
11
-150.773000
21
-141.225744
0
LINE
8
0
10
-150.773000
20
-141.225744
11
-151.007256
21
-141.460000
0
LINE
8
0
10
-151.007256
20
-141.460000
11
-151.093000
21
-141.780000
0
LINE
8
0
10
-151.093000
20
-141.780000
11
-151.007256
21
-142.100000
0
LINE
8
0
10
-151.007256
20
-142.100000
11
-150.773000
21
-142.334256
0
LINE
8
0
10
-150.773000
20
-142.334256
11
-150.453000
21
-142.420000
0
LINE
8
0
10
-150.453000
20
-142.420000
11
-150.133000
21
-142.334256
0
LINE
8
0
10
-150.133000
20
-142.334256
11
-149.898744
21
-142.100000
0
LINE
8
0
10
-149.898744
20
-142.100000
11
-149.813000
21
-141.780000
0
LINE
8
0
10
-149.813000
20
-141.780000
11
-149.813000
21
-141.780000
0
LINE
8
0
10
-168.241000
20
-152.737000
11
-168.039485
21
-152.171529
0
LINE
8
0
10
-168.039485
20
-152.171529
11
-168.170092
21
-151.585604
0
LINE
8
0
10
-168.170092
20
-151.585604
11
-168.592692
21
-151.159253
0
LINE
8
0
10
-168.592692
20
-151.159253
11
-169.177439
21
-151.023472
0
LINE
8
0
10
-169.177439
20
-151.023472
11
-169.744669
21
-151.219980
0
LINE
8
0
10
-169.744669
20
-151.219980
11
-170.120100
21
-151.688400
0
LINE
8
0
10
-159.787000
20
-135.380000
11
-159.787000
21
-112.446000
0
LINE
8
0
10
-179.052000
20
-136.646000
11
-178.765746
21
-138.923564
0
LINE
8
0
10
-178.765746
20
-138.923564
11
-178.218251
21
-141.128093
0
LINE
8
0
10
-178.218251
20
-141.128093
11
-177.421529
21
-143.239358
0
LINE
8
0
10
-177.421529
20
-143.239358
11
-176.387591
21
-145.237130
0
LINE
8
0
10
-176.387591
20
-145.237130
11
-175.128448
21
-147.101179
0
LINE
8
0
10
-175.128448
20
-147.101179
11
-173.656112
21
-148.811277
0
LINE
8
0
10
-173.656112
20
-148.811277
11
-171.982596
21
-150.347193
0
LINE
8
0
10
-171.982596
20
-150.347193
11
-170.119910
21
-151.688700
0
LINE
8
0
10
-168.241000
20
-152.737000
11
-166.520060
21
-153.474215
0
LINE
8
0
10
-166.520060
20
-153.474215
11
-164.740030
21
-154.040155
0
LINE
8
0
10
-164.740030
20
-154.040155
11
-162.913642
21
-154.431440
0
LINE
8
0
10
-162.913642
20
-154.431440
11
-161.053630
21
-154.644690
0
LINE
8
0
10
-176.065000
20
-114.962000
11
-176.895615
21
-114.996334
0
LINE
8
0
10
-176.895615
20
-114.996334
11
-177.691420
21
-115.203040
0
LINE
8
0
10
-177.691420
20
-115.203040
11
-178.426092
21
-115.572214
0
LINE
8
0
10
-178.426092
20
-115.572214
11
-179.073310
21
-116.093950
0
LINE
8
0
10
-179.073310
20
-116.093950
11
-179.595046
21
-116.741168
0
LINE
8
0
10
-179.595046
20
-116.741168
11
-179.964220
21
-117.475840
0
LINE
8
0
10
-179.964220
20
-117.475840
11
-180.170926
21
-118.271645
0
LINE
8
0
10
-180.170926
20
-118.271645
11
-180.205260
21
-119.102260
0
LINE
8
0
10
-174.613000
20
-118.847000
11
-174.840270
21
-117.991920
0
LINE
8
0
10
-174.840270
20
-117.991920
11
-175.465138
21
-117.365538
0
LINE
8
0
10
-175.465138
20
-117.365538
11
-176.319665
21
-117.136199
0
LINE
8
0
10
-176.319665
20
-117.136199
11
-177.174192
21
-117.365538
0
LINE
8
0
10
-177.174192
20
-117.365538
11
-177.799060
21
-117.991920
0
LINE
8
0
10
-177.799060
20
-117.991920
11
-178.026330
21
-118.847000
0
LINE
8
0
10
-178.026330
20
-118.847000
11
-177.799060
21
-119.702080
0
LINE
8
0
10
-177.799060
20
-119.702080
11
-177.174192
21
-120.328462
0
LINE
8
0
10
-177.174192
20
-120.328462
11
-176.319665
21
-120.557801
0
LINE
8
0
10
-176.319665
20
-120.557801
11
-175.465138
21
-120.328462
0
LINE
8
0
10
-175.465138
20
-120.328462
11
-174.840270
21
-119.702080
0
LINE
8
0
10
-174.840270
20
-119.702080
11
-174.613000
21
-118.847000
0
LINE
8
0
10
-174.613000
20
-118.847000
11
-174.613000
21
-118.847000
0
LINE
8
0
10
-179.052000
20
-136.646000
11
-180.204880
21
-119.102200
0
LINE
8
0
10
-176.064000
20
-114.962000
11
-158.520200
21
-116.114880
0
LINE
8
0
10
-140.522000
20
-134.113000
11
-140.722665
21
-132.325088
0
LINE
8
0
10
-140.722665
20
-132.325088
11
-141.081406
21
-130.590738
0
LINE
8
0
10
-141.081406
20
-130.590738
11
-141.590757
21
-128.917415
0
LINE
8
0
10
-141.590757
20
-128.917415
11
-142.243252
21
-127.312584
0
LINE
8
0
10
-142.243252
20
-127.312584
11
-143.031426
21
-125.783711
0
LINE
8
0
10
-143.031426
20
-125.783711
11
-143.947813
21
-124.338260
0
LINE
8
0
10
-143.947813
20
-124.338260
11
-144.984948
21
-122.983698
0
LINE
8
0
10
-144.984948
20
-122.983698
11
-146.135365
21
-121.727490
0
LINE
8
0
10
-146.135365
20
-121.727490
11
-147.391599
21
-120.577101
0
LINE
8
0
10
-147.391599
20
-120.577101
11
-148.746184
21
-119.539996
0
LINE
8
0
10
-148.746184
20
-119.539996
11
-150.191655
21
-118.623641
0
LINE
8
0
10
-150.191655
20
-118.623641
11
-151.720546
21
-117.835501
0
LINE
8
0
10
-151.720546
20
-117.835501
11
-153.325391
21
-117.183041
0
LINE
8
0
10
-153.325391
20
-117.183041
11
-154.998726
21
-116.673728
0
LINE
8
0
10
-154.998726
20
-116.673728
11
-156.733084
21
-116.315026
0
LINE
8
0
10
-156.733084
20
-116.315026
11
-158.521000
21
-116.114400
0
LINE
8
0
10
-141.547000
20
-151.913000
11
-141.774270
21
-151.057920
0
LINE
8
0
10
-141.774270
20
-151.057920
11
-142.399138
21
-150.431538
0
LINE
8
0
10
-142.399138
20
-150.431538
11
-143.253665
21
-150.202199
0
LINE
8
0
10
-143.253665
20
-150.202199
11
-144.108192
21
-150.431538
0
LINE
8
0
10
-144.108192
20
-150.431538
11
-144.733060
21
-151.057920
0
LINE
8
0
10
-144.733060
20
-151.057920
11
-144.960330
21
-151.913000
0
LINE
8
0
10
-144.960330
20
-151.913000
11
-144.733060
21
-152.768080
0
LINE
8
0
10
-144.733060
20
-152.768080
11
-144.108192
21
-153.394462
0
LINE
8
0
10
-144.108192
20
-153.394462
11
-143.253665
21
-153.623801
0
LINE
8
0
10
-143.253665
20
-153.623801
11
-142.399138
21
-153.394462
0
LINE
8
0
10
-142.399138
20
-153.394462
11
-141.774270
21
-152.768080
0
LINE
8
0
10
-141.774270
20
-152.768080
11
-141.547000
21
-151.913000
0
LINE
8
0
10
-141.547000
20
-151.913000
11
-141.547000
21
-151.913000
0
LINE
8
0
10
-140.522000
20
-134.113000
11
-139.368560
21
-151.657900
0
LINE
8
0
10
-143.509000
20
-155.798000
11
-142.678360
21
-155.763683
0
LINE
8
0
10
-142.678360
20
-155.763683
11
-141.882529
21
-155.556983
0
LINE
8
0
10
-141.882529
20
-155.556983
11
-141.147832
21
-155.187806
0
LINE
8
0
10
-141.147832
20
-155.187806
11
-140.500593
21
-154.666057
0
LINE
8
0
10
-140.500593
20
-154.666057
11
-139.978844
21
-154.018818
0
LINE
8
0
10
-139.978844
20
-154.018818
11
-139.609667
21
-153.284121
0
LINE
8
0
10
-139.609667
20
-153.284121
11
-139.402967
21
-152.488290
0
LINE
8
0
10
-139.402967
20
-152.488290
11
-139.368650
21
-151.657650
0
LINE
8
0
10
-143.509000
20
-155.798000
11
-161.053600
21
-154.644560
 0 
ENDSEC
 0 
EOF