0
SECTION
2
HEADER
9
$INSUNITS
70
4
9
$ACADVER
1
AC1014
9
$HANDSEED
5
FFFF
0
ENDSEC
0
SECTION
2
TABLES
0
TABLE
2
VPORT
5
8
100
AcDbSymbolTable
0
ENDTAB
0
TABLE
2
LTYPE
5
5
100
AcDbSymbolTable
0
LTYPE
5
14
100
AcDbSymbolTableRecord
100
AcDbLinetypeTableRecord
2
BYBLOCK
70
0
0
LTYPE
5
15
100
AcDbSymbolTableRecord
100
AcDbLinetypeTableRecord
2
BYLAYER
70
0
0
ENDTAB
0
TABLE
2
LAYER
5
2
100
AcDbSymbolTable
70
2
0
LAYER
5
50
100
AcDbSymbolTableRecord
100
AcDbLayerTableRecord
2
0
70
0
6
CONTINUOUS
0
ENDTAB
0
TABLE
2
STYLE
5
3
100
AcDbSymbolTable
70
1
0
STYLE
5
11
100
AcDbSymbolTableRecord
100
AcDbTextStyleTableRecord
2
STANDARD
70
0
0
ENDTAB
0
TABLE
2
VIEW
5
6
100
AcDbSymbolTable
70
0
0
ENDTAB
0
TABLE
2
UCS
5
7
100
AcDbSymbolTable
70
0
0
ENDTAB
0
TABLE
2
APPID
5
9
100
AcDbSymbolTable
70
2
0
APPID
5
12
100
AcDbSymbolTableRecord
100
AcDbRegAppTableRecord
2
ACAD
70
0
0
ENDTAB
0
TABLE
2
DIMSTYLE
5
A
100
AcDbSymbolTable
70
1
0
ENDTAB
0
TABLE
2
BLOCK_RECORD
5
1
100
AcDbSymbolTable
70
1
0
BLOCK_RECORD
5
1F
100
AcDbSymbolTableRecord
100
AcDbBlockTableRecord
2
*MODEL_SPACE
0
BLOCK_RECORD
5
1B
100
AcDbSymbolTableRecord
100
AcDbBlockTableRecord
2
*PAPER_SPACE
0
ENDTAB
0
ENDSEC
0
SECTION
2
BLOCKS
0
BLOCK
5
20
100
AcDbEntity
100
AcDbBlockBegin
2
*MODEL_SPACE
0
ENDBLK
5
21
100
AcDbEntity
100
AcDbBlockEnd
0
BLOCK
5
1C
100
AcDbEntity
100
AcDbBlockBegin
2
*PAPER_SPACE
0
ENDBLK
5
1D
100
AcDbEntity
100
AcDbBlockEnd
0
ENDSEC
0
SECTION
2
ENTITIES
0
LINE
5
100
100
AcDbEntity
8
0
100
AcDbLine
10
20.538818215421877
20
13.370822801700193
30
0
11
13.338819527749877
21
13.370822801700195
31
1.5526569422178204e-31
0
LINE
5
101
100
AcDbEntity
8
0
100
AcDbLine
10
13.338819527749877
20
13.370822801700195
30
1.5526569422178204e-31
11
13.338819527749877
21
10.875652944276197
31
9.8607613152626476e-31
0
LINE
5
102
100
AcDbEntity
8
0
100
AcDbLine
10
13.338819527749877
20
10.875652944276197
30
9.8607613152626476e-31
11
13.337297298673878
21
8.3544374321511938
31
-2.2204460492503131e-15
0
ARC
5
103
100
AcDbEntity
8
0
100
AcDbCircle
10
10.937297736116864
20
8.355886474924219
30
0
40
2.4000000000000004
210
9.4083511430449374e-32
220
2.9525484730559997e-32
230
1
100
AcDbArc
50
287.42300977361947
51
359.96540664989027
0
ARC
5
104
100
AcDbEntity
8
0
100
AcDbCircle
10
16.925777486632352
20
-10.72651668289903
30
0
40
17.600000000000918
210
7.3960139390212613e-49
220
-2.3567537275739708e-48
230
1
100
AcDbArc
50
107.42300977361748
51
113.28491264155414
0
SPLINE
5
105
100
AcDbEntity
8
0
100
AcDbSpline
70
0
71
3
72
11
73
7
74
0
42
0.000000001
43
0.0000000001
44
0.0000000001
40
0
40
0
40
0
40
0
40
0.095091859084898797
40
0.095091859084898797
40
0.095091859084898797
40
0.190183718169991
40
0.190183718169991
40
0.190183718169991
40
0.190183718169991
10
8.0999308395938563
20
5.4277375234642378
30
0
10
8.3927022900789083
20
5.3062604719263362
30
0
10
8.7174930699528375
20
5.2499300547722072
30
0
10
9.0353728187145421
20
5.2520114883310853
30
0
10
9.3532525674768863
20
5.2540929218899635
30
0
10
9.6772778417748384
20
5.3146716987272669
30
-2.2204460492503131e-15
10
9.9684334260878771
20
5.4399722254331806
30
0
0
LINE
5
106
100
AcDbEntity
8
0
100
AcDbLine
10
8.0999308395938563
20
5.4277375234642378
30
0
11
2.6425695204068589
21
7.6921118712122203
31
9.959368928415274e-29
0
ARC
5
107
100
AcDbEntity
8
0
100
AcDbCircle
10
1.4353597349338894
20
4.7826197275801974
30
0
40
3.1499999999997081
210
-1.2116954021184773e-29
220
-2.9203029128508433e-29
230
1
100
AcDbArc
50
67.465404764730252
51
247.46540667382629
0
LINE
5
108
100
AcDbEntity
8
0
100
AcDbLine
10
0.22815004640511674
20
1.8731275437236521
30
0
11
14.663075393610878
21
-4.1162275229738317
31
-1.9721522630525295e-30
0
ARC
5
109
100
AcDbEntity
8
0
100
AcDbCircle
10
8.3779201835148598
20
-19.264059842649814
30
2.2204460492503131e-15
40
16.400000000000002
210
1.8058173649746105e-31
220
7.4671700351676541e-32
230
1
100
AcDbArc
50
22.465406649896156
51
67.465406649894845
0
LINE
5
110
100
AcDbEntity
8
0
100
AcDbLine
10
23.533331006902717
20
-12.997200758998881
30
2.2204460492503099e-15
11
29.505251023389878
21
-27.439347940892809
31
-3.944304526105059e-30
0
ARC
5
111
100
AcDbEntity
8
0
100
AcDbCircle
10
32.41619883432989
20
-26.235652447015813
30
5.4738221262688167e-46
40
3.1499999999994017
210
-1.0064122979911037e-30
220
-8.4297968674496053e-31
230
1
100
AcDbArc
50
-157.53459336680302
51
22.465407840614997
0
LINE
5
112
100
AcDbEntity
8
0
100
AcDbLine
10
35.327146619904475
20
-25.031956891794962
30
2.5820585035627306e-38
11
33.069362898715937
21
-19.571862865705398
31
0
0
SPLINE
5
113
100
AcDbEntity
8
0
100
AcDbSpline
70
0
71
3
72
11
73
7
74
0
42
0.000000001
43
0.0000000001
44
0.0000000001
40
0
40
0
40
0
40
0
40
0.095091869522982195
40
0.095091869522982195
40
0.095091869522982195
40
0.190183739045301
40
0.190183739045301
40
0.190183739045301
40
0.190183739045301
10
33.083853816269709
20
-17.703376243301783
30
0
10
32.958201805097019
20
-17.994380350514945
30
0
10
32.897231800505899
20
-18.318332255990804
30
0
10
32.894766527338334
20
-18.636209292884907
30
0
10
32.892301254170789
20
-18.954086329776807
30
0
10
32.948239454345831
20
-19.278944908677857
30
0
10
33.069362898714928
20
-19.57186286570483
30
0
0
ARC
5
114
100
AcDbEntity
8
0
100
AcDbCircle
10
16.925777486632352
20
-10.72651668289903
30
0
40
17.599999999999159
210
1.6352401320904092e-31
220
3.7871387037175553e-31
230
1
100
AcDbArc
50
-23.354095668949078
51
72.507803526174811
0
ARC
5
115
100
AcDbEntity
8
0
100
AcDbCircle
10
22.937295548902874
20
8.3486412610611893
30
0
40
2.4000000000000012
210
-3.9527108119555731e-32
220
-3.9440665930217719e-31
230
1
100
AcDbArc
50
179.96540664991133
51
252.50780352618466
0
LINE
5
116
100
AcDbEntity
8
0
100
AcDbLine
10
20.537295986345612
20
8.3500903038331842
30
-9.4293530077198908e-32
11
20.538818215421877
21
10.871305815958188
31
0
0
LINE
5
117
100
AcDbEntity
8
0
100
AcDbLine
10
20.538818215421877
20
10.871305815958188
30
0
11
20.538818215421877
21
13.370822801700193
31
0
0
CIRCLE
5
118
100
AcDbEntity
8
0
100
AcDbCircle
10
1.4353597349338894
20
4.7826197275801974
30
0
40
2.1500000000000004
210
0
220
0
230
1
0
CIRCLE
5
119
100
AcDbEntity
8
0
100
AcDbCircle
10
32.41619883432989
20
-26.235652447015813
30
5.4738221262688167e-46
40
2.1500000000000004
210
0
220
0
230
1
0
ENDSEC
0
SECTION
2
OBJECTS
0
DICTIONARY
5
C
100
AcDbDictionary
3
ACAD_GROUP
350
D
3
ACAD_MLINESTYLE
350
17
0
DICTIONARY
5
D
100
AcDbDictionary
0
DICTIONARY
5
1A
330
C
100
AcDbDictionary
0
DICTIONARY
5
17
100
AcDbDictionary
0
ENDSEC
0
EOF
