M48
METRIC,TZ
T1C0.950
T2C1.000
T3C1.200
%
G90
G05
T1
X146100Y-99100
X148600Y-99100
X151100Y-99100
X153600Y-99100
T2
X134750Y-91750
X136500Y-99250
X137250Y-91750
X139000Y-99250
X143583Y-91750
X146083Y-91750
X149800Y-106000
X152300Y-106000
X152417Y-91750
X154917Y-91750
X161250Y-91750
X163000Y-99250
X163750Y-91750
X165500Y-99250
T3
X141050Y-83000
X141050Y-85500
X143550Y-83000
X143550Y-85500
X146050Y-83000
X146050Y-85500
X148550Y-83000
X148550Y-85500
X151050Y-83000
X151050Y-85500
X153550Y-83000
X153550Y-85500
X156050Y-83000
X156050Y-85500
X158550Y-83000
X158550Y-85500
T0
M30
