G04 #@! TF.GenerationSoftware,KiCad,Pcbnew,(5.1.12)-1*
G04 #@! TF.CreationDate,2021-12-28T23:10:20+01:00*
G04 #@! TF.ProjectId,Toolhead_PCB,546f6f6c-6865-4616-945f-5043422e6b69,rev?*
G04 #@! TF.SameCoordinates,Original*
G04 #@! TF.FileFunction,Legend,Top*
G04 #@! TF.FilePolarity,Positive*
%FSLAX46Y46*%
G04 Gerber Fmt 4.6, Leading zero omitted, Abs format (unit mm)*
G04 Created by KiCad (PCBNEW (5.1.12)-1) date 2021-12-28 23:10:20*
%MOMM*%
%LPD*%
G01*
G04 APERTURE LIST*
%ADD10C,0.150000*%
%ADD11C,0.100000*%
%ADD12C,0.200000*%
%ADD13C,0.120000*%
%ADD14C,1.802000*%
%ADD15C,3.302000*%
%ADD16O,1.802000X2.102000*%
%ADD17O,1.802000X2.052000*%
G04 APERTURE END LIST*
D10*
X99626190Y-114285714D02*
X99588095Y-114323809D01*
X99473809Y-114361904D01*
X99397619Y-114361904D01*
X99283333Y-114323809D01*
X99207142Y-114247619D01*
X99169047Y-114171428D01*
X99130952Y-114019047D01*
X99130952Y-113904761D01*
X99169047Y-113752380D01*
X99207142Y-113676190D01*
X99283333Y-113600000D01*
X99397619Y-113561904D01*
X99473809Y-113561904D01*
X99588095Y-113600000D01*
X99626190Y-113638095D01*
X100083333Y-114361904D02*
X100007142Y-114323809D01*
X99969047Y-114247619D01*
X99969047Y-113561904D01*
X100388095Y-114361904D02*
X100388095Y-113828571D01*
X100388095Y-113561904D02*
X100350000Y-113600000D01*
X100388095Y-113638095D01*
X100426190Y-113600000D01*
X100388095Y-113561904D01*
X100388095Y-113638095D01*
X101111904Y-114323809D02*
X101035714Y-114361904D01*
X100883333Y-114361904D01*
X100807142Y-114323809D01*
X100769047Y-114285714D01*
X100730952Y-114209523D01*
X100730952Y-113980952D01*
X100769047Y-113904761D01*
X100807142Y-113866666D01*
X100883333Y-113828571D01*
X101035714Y-113828571D01*
X101111904Y-113866666D01*
X101454761Y-114361904D02*
X101454761Y-113561904D01*
X101530952Y-114057142D02*
X101759523Y-114361904D01*
X101759523Y-113828571D02*
X101454761Y-114133333D01*
X102026190Y-113828571D02*
X102216666Y-114361904D01*
X102407142Y-113828571D02*
X102216666Y-114361904D01*
X102140476Y-114552380D01*
X102102380Y-114590476D01*
X102026190Y-114628571D01*
D11*
X102837857Y-95608571D02*
X103409285Y-95608571D01*
X103123571Y-95894285D02*
X103123571Y-95322857D01*
X105480714Y-95608571D02*
X106052142Y-95608571D01*
D10*
X167297619Y-91559523D02*
X168297619Y-91559523D01*
X167821428Y-91559523D02*
X167821428Y-92130952D01*
X167297619Y-92130952D02*
X168297619Y-92130952D01*
X167345238Y-92988095D02*
X167297619Y-92892857D01*
X167297619Y-92702380D01*
X167345238Y-92607142D01*
X167440476Y-92559523D01*
X167821428Y-92559523D01*
X167916666Y-92607142D01*
X167964285Y-92702380D01*
X167964285Y-92892857D01*
X167916666Y-92988095D01*
X167821428Y-93035714D01*
X167726190Y-93035714D01*
X167630952Y-92559523D01*
X167297619Y-93892857D02*
X167821428Y-93892857D01*
X167916666Y-93845238D01*
X167964285Y-93750000D01*
X167964285Y-93559523D01*
X167916666Y-93464285D01*
X167345238Y-93892857D02*
X167297619Y-93797619D01*
X167297619Y-93559523D01*
X167345238Y-93464285D01*
X167440476Y-93416666D01*
X167535714Y-93416666D01*
X167630952Y-93464285D01*
X167678571Y-93559523D01*
X167678571Y-93797619D01*
X167726190Y-93892857D01*
X167964285Y-94226190D02*
X167964285Y-94607142D01*
X168297619Y-94369047D02*
X167440476Y-94369047D01*
X167345238Y-94416666D01*
X167297619Y-94511904D01*
X167297619Y-94607142D01*
X167345238Y-95321428D02*
X167297619Y-95226190D01*
X167297619Y-95035714D01*
X167345238Y-94940476D01*
X167440476Y-94892857D01*
X167821428Y-94892857D01*
X167916666Y-94940476D01*
X167964285Y-95035714D01*
X167964285Y-95226190D01*
X167916666Y-95321428D01*
X167821428Y-95369047D01*
X167726190Y-95369047D01*
X167630952Y-94892857D01*
X167297619Y-95797619D02*
X167964285Y-95797619D01*
X167773809Y-95797619D02*
X167869047Y-95845238D01*
X167916666Y-95892857D01*
X167964285Y-95988095D01*
X167964285Y-96083333D01*
D11*
X162727857Y-97228571D02*
X163299285Y-97228571D01*
X163013571Y-97514285D02*
X163013571Y-96942857D01*
X165370714Y-97228571D02*
X165942142Y-97228571D01*
D12*
X168962619Y-97707142D02*
X169962619Y-97707142D01*
X169962619Y-98088095D01*
X169915000Y-98183333D01*
X169867380Y-98230952D01*
X169772142Y-98278571D01*
X169629285Y-98278571D01*
X169534047Y-98230952D01*
X169486428Y-98183333D01*
X169438809Y-98088095D01*
X169438809Y-97707142D01*
X168962619Y-99135714D02*
X169486428Y-99135714D01*
X169581666Y-99088095D01*
X169629285Y-98992857D01*
X169629285Y-98802380D01*
X169581666Y-98707142D01*
X169010238Y-99135714D02*
X168962619Y-99040476D01*
X168962619Y-98802380D01*
X169010238Y-98707142D01*
X169105476Y-98659523D01*
X169200714Y-98659523D01*
X169295952Y-98707142D01*
X169343571Y-98802380D01*
X169343571Y-99040476D01*
X169391190Y-99135714D01*
X168962619Y-99611904D02*
X169629285Y-99611904D01*
X169438809Y-99611904D02*
X169534047Y-99659523D01*
X169581666Y-99707142D01*
X169629285Y-99802380D01*
X169629285Y-99897619D01*
X169629285Y-100088095D02*
X169629285Y-100469047D01*
X169962619Y-100230952D02*
X169105476Y-100230952D01*
X169010238Y-100278571D01*
X168962619Y-100373809D01*
X168962619Y-100469047D01*
X169486428Y-101135714D02*
X169486428Y-100802380D01*
X168962619Y-100802380D02*
X169962619Y-100802380D01*
X169962619Y-101278571D01*
X168962619Y-102088095D02*
X169486428Y-102088095D01*
X169581666Y-102040476D01*
X169629285Y-101945238D01*
X169629285Y-101754761D01*
X169581666Y-101659523D01*
X169010238Y-102088095D02*
X168962619Y-101992857D01*
X168962619Y-101754761D01*
X169010238Y-101659523D01*
X169105476Y-101611904D01*
X169200714Y-101611904D01*
X169295952Y-101659523D01*
X169343571Y-101754761D01*
X169343571Y-101992857D01*
X169391190Y-102088095D01*
X169629285Y-102564285D02*
X168962619Y-102564285D01*
X169534047Y-102564285D02*
X169581666Y-102611904D01*
X169629285Y-102707142D01*
X169629285Y-102850000D01*
X169581666Y-102945238D01*
X169486428Y-102992857D01*
X168962619Y-102992857D01*
D10*
X155559345Y-97536904D02*
X155559345Y-96736904D01*
X155559345Y-97117857D02*
X156016488Y-97117857D01*
X156016488Y-97536904D02*
X156016488Y-96736904D01*
X156397440Y-97117857D02*
X156664107Y-97117857D01*
X156778392Y-97536904D02*
X156397440Y-97536904D01*
X156397440Y-96736904D01*
X156778392Y-96736904D01*
X157997440Y-97117857D02*
X157730773Y-97117857D01*
X157730773Y-97536904D02*
X157730773Y-96736904D01*
X158111726Y-96736904D01*
X158759345Y-97536904D02*
X158759345Y-97117857D01*
X158721250Y-97041666D01*
X158645059Y-97003571D01*
X158492678Y-97003571D01*
X158416488Y-97041666D01*
X158759345Y-97498809D02*
X158683154Y-97536904D01*
X158492678Y-97536904D01*
X158416488Y-97498809D01*
X158378392Y-97422619D01*
X158378392Y-97346428D01*
X158416488Y-97270238D01*
X158492678Y-97232142D01*
X158683154Y-97232142D01*
X158759345Y-97194047D01*
X159140297Y-97003571D02*
X159140297Y-97536904D01*
X159140297Y-97079761D02*
X159178392Y-97041666D01*
X159254583Y-97003571D01*
X159368869Y-97003571D01*
X159445059Y-97041666D01*
X159483154Y-97117857D01*
X159483154Y-97536904D01*
D11*
X136057857Y-97228571D02*
X136629285Y-97228571D01*
X136343571Y-97514285D02*
X136343571Y-96942857D01*
X138700714Y-97228571D02*
X139272142Y-97228571D01*
D12*
X133037380Y-102992857D02*
X132037380Y-102992857D01*
X132037380Y-102611904D01*
X132085000Y-102516666D01*
X132132619Y-102469047D01*
X132227857Y-102421428D01*
X132370714Y-102421428D01*
X132465952Y-102469047D01*
X132513571Y-102516666D01*
X132561190Y-102611904D01*
X132561190Y-102992857D01*
X133037380Y-101564285D02*
X132513571Y-101564285D01*
X132418333Y-101611904D01*
X132370714Y-101707142D01*
X132370714Y-101897619D01*
X132418333Y-101992857D01*
X132989761Y-101564285D02*
X133037380Y-101659523D01*
X133037380Y-101897619D01*
X132989761Y-101992857D01*
X132894523Y-102040476D01*
X132799285Y-102040476D01*
X132704047Y-101992857D01*
X132656428Y-101897619D01*
X132656428Y-101659523D01*
X132608809Y-101564285D01*
X133037380Y-101088095D02*
X132370714Y-101088095D01*
X132561190Y-101088095D02*
X132465952Y-101040476D01*
X132418333Y-100992857D01*
X132370714Y-100897619D01*
X132370714Y-100802380D01*
X132370714Y-100611904D02*
X132370714Y-100230952D01*
X132037380Y-100469047D02*
X132894523Y-100469047D01*
X132989761Y-100421428D01*
X133037380Y-100326190D01*
X133037380Y-100230952D01*
X132513571Y-99564285D02*
X132513571Y-99897619D01*
X133037380Y-99897619D02*
X132037380Y-99897619D01*
X132037380Y-99421428D01*
X133037380Y-98611904D02*
X132513571Y-98611904D01*
X132418333Y-98659523D01*
X132370714Y-98754761D01*
X132370714Y-98945238D01*
X132418333Y-99040476D01*
X132989761Y-98611904D02*
X133037380Y-98707142D01*
X133037380Y-98945238D01*
X132989761Y-99040476D01*
X132894523Y-99088095D01*
X132799285Y-99088095D01*
X132704047Y-99040476D01*
X132656428Y-98945238D01*
X132656428Y-98707142D01*
X132608809Y-98611904D01*
X132370714Y-98135714D02*
X133037380Y-98135714D01*
X132465952Y-98135714D02*
X132418333Y-98088095D01*
X132370714Y-97992857D01*
X132370714Y-97850000D01*
X132418333Y-97754761D01*
X132513571Y-97707142D01*
X133037380Y-97707142D01*
D10*
X142268511Y-96736904D02*
X142801845Y-97536904D01*
X142801845Y-96736904D02*
X142268511Y-97536904D01*
X143106607Y-97232142D02*
X143716130Y-97232142D01*
X144058988Y-97498809D02*
X144173273Y-97536904D01*
X144363750Y-97536904D01*
X144439940Y-97498809D01*
X144478035Y-97460714D01*
X144516130Y-97384523D01*
X144516130Y-97308333D01*
X144478035Y-97232142D01*
X144439940Y-97194047D01*
X144363750Y-97155952D01*
X144211369Y-97117857D01*
X144135178Y-97079761D01*
X144097083Y-97041666D01*
X144058988Y-96965476D01*
X144058988Y-96889285D01*
X144097083Y-96813095D01*
X144135178Y-96775000D01*
X144211369Y-96736904D01*
X144401845Y-96736904D01*
X144516130Y-96775000D01*
X144744702Y-97003571D02*
X145049464Y-97003571D01*
X144858988Y-96736904D02*
X144858988Y-97422619D01*
X144897083Y-97498809D01*
X144973273Y-97536904D01*
X145049464Y-97536904D01*
X145430416Y-97536904D02*
X145354226Y-97498809D01*
X145316130Y-97460714D01*
X145278035Y-97384523D01*
X145278035Y-97155952D01*
X145316130Y-97079761D01*
X145354226Y-97041666D01*
X145430416Y-97003571D01*
X145544702Y-97003571D01*
X145620892Y-97041666D01*
X145658988Y-97079761D01*
X145697083Y-97155952D01*
X145697083Y-97384523D01*
X145658988Y-97460714D01*
X145620892Y-97498809D01*
X145544702Y-97536904D01*
X145430416Y-97536904D01*
X146039940Y-97003571D02*
X146039940Y-97803571D01*
X146039940Y-97041666D02*
X146116130Y-97003571D01*
X146268511Y-97003571D01*
X146344702Y-97041666D01*
X146382797Y-97079761D01*
X146420892Y-97155952D01*
X146420892Y-97384523D01*
X146382797Y-97460714D01*
X146344702Y-97498809D01*
X146268511Y-97536904D01*
X146116130Y-97536904D01*
X146039940Y-97498809D01*
D12*
X81037380Y-97142857D02*
X81037380Y-96571428D01*
X82037380Y-96857142D02*
X81037380Y-96857142D01*
X82037380Y-96238095D02*
X81037380Y-96238095D01*
X82037380Y-95809523D02*
X81513571Y-95809523D01*
X81418333Y-95857142D01*
X81370714Y-95952380D01*
X81370714Y-96095238D01*
X81418333Y-96190476D01*
X81465952Y-96238095D01*
X81989761Y-94952380D02*
X82037380Y-95047619D01*
X82037380Y-95238095D01*
X81989761Y-95333333D01*
X81894523Y-95380952D01*
X81513571Y-95380952D01*
X81418333Y-95333333D01*
X81370714Y-95238095D01*
X81370714Y-95047619D01*
X81418333Y-94952380D01*
X81513571Y-94904761D01*
X81608809Y-94904761D01*
X81704047Y-95380952D01*
X82037380Y-94476190D02*
X81370714Y-94476190D01*
X81561190Y-94476190D02*
X81465952Y-94428571D01*
X81418333Y-94380952D01*
X81370714Y-94285714D01*
X81370714Y-94190476D01*
X82037380Y-93857142D02*
X81370714Y-93857142D01*
X81465952Y-93857142D02*
X81418333Y-93809523D01*
X81370714Y-93714285D01*
X81370714Y-93571428D01*
X81418333Y-93476190D01*
X81513571Y-93428571D01*
X82037380Y-93428571D01*
X81513571Y-93428571D02*
X81418333Y-93380952D01*
X81370714Y-93285714D01*
X81370714Y-93142857D01*
X81418333Y-93047619D01*
X81513571Y-93000000D01*
X82037380Y-93000000D01*
D13*
X139515956Y-85800219D02*
X139940220Y-85500219D01*
X139515956Y-85200219D02*
X139515956Y-85800219D01*
X139940220Y-85500219D02*
X139515956Y-85200219D01*
X158700220Y-81890219D02*
X158700220Y-81190219D01*
X158400220Y-81890219D02*
X158700220Y-81890219D01*
X158400220Y-81190219D02*
X158400220Y-81890219D01*
X158700220Y-81190219D02*
X158400220Y-81190219D01*
X156200220Y-81890219D02*
X156200220Y-81190219D01*
X155900220Y-81890219D02*
X156200220Y-81890219D01*
X155900220Y-81190219D02*
X155900220Y-81890219D01*
X156200220Y-81190219D02*
X155900220Y-81190219D01*
X153700220Y-81890219D02*
X153700220Y-81190219D01*
X153400220Y-81890219D02*
X153700220Y-81890219D01*
X153400220Y-81190219D02*
X153400220Y-81890219D01*
X153700220Y-81190219D02*
X153400220Y-81190219D01*
X151200220Y-81890219D02*
X151200220Y-81190219D01*
X150900220Y-81890219D02*
X151200220Y-81890219D01*
X150900220Y-81190219D02*
X150900220Y-81890219D01*
X151200220Y-81190219D02*
X150900220Y-81190219D01*
X148700220Y-81890219D02*
X148700220Y-81190219D01*
X148400220Y-81890219D02*
X148700220Y-81890219D01*
X148400220Y-81190219D02*
X148400220Y-81890219D01*
X148700220Y-81190219D02*
X148400220Y-81190219D01*
X146200220Y-81890219D02*
X146200220Y-81190219D01*
X145900220Y-81890219D02*
X146200220Y-81890219D01*
X145900220Y-81190219D02*
X145900220Y-81890219D01*
X146200220Y-81190219D02*
X145900220Y-81190219D01*
X143700220Y-81890219D02*
X143700220Y-81190219D01*
X143400220Y-81890219D02*
X143700220Y-81890219D01*
X143400220Y-81190219D02*
X143400220Y-81890219D01*
X143700220Y-81190219D02*
X143400220Y-81190219D01*
X141200220Y-81890219D02*
X141200220Y-81190219D01*
X140900220Y-81890219D02*
X141200220Y-81890219D01*
X140900220Y-81190219D02*
X140900220Y-81890219D01*
X141200220Y-81190219D02*
X140900220Y-81190219D01*
X139220220Y-72510219D02*
X139220220Y-81190219D01*
X160380220Y-72510219D02*
X139220220Y-72510219D01*
X160380220Y-81190219D02*
X160380220Y-72510219D01*
X139220220Y-81190219D02*
X160380220Y-81190219D01*
X166310000Y-94210000D02*
X166310000Y-88240000D01*
X166310000Y-88240000D02*
X158690000Y-88240000D01*
X158690000Y-88240000D02*
X158690000Y-94210000D01*
X158690000Y-94210000D02*
X166310000Y-94210000D01*
X163000000Y-94200000D02*
X163000000Y-93450000D01*
X163000000Y-93450000D02*
X162000000Y-93450000D01*
X162000000Y-93450000D02*
X162000000Y-94200000D01*
X162000000Y-94200000D02*
X163000000Y-94200000D01*
X166300000Y-94200000D02*
X166300000Y-93450000D01*
X166300000Y-93450000D02*
X164500000Y-93450000D01*
X164500000Y-93450000D02*
X164500000Y-94200000D01*
X164500000Y-94200000D02*
X166300000Y-94200000D01*
X160500000Y-94200000D02*
X160500000Y-93450000D01*
X160500000Y-93450000D02*
X158700000Y-93450000D01*
X158700000Y-93450000D02*
X158700000Y-94200000D01*
X158700000Y-94200000D02*
X160500000Y-94200000D01*
X166300000Y-91950000D02*
X165550000Y-91950000D01*
X165550000Y-91950000D02*
X165550000Y-89000000D01*
X165550000Y-89000000D02*
X162500000Y-89000000D01*
X158700000Y-91950000D02*
X159450000Y-91950000D01*
X159450000Y-91950000D02*
X159450000Y-89000000D01*
X159450000Y-89000000D02*
X162500000Y-89000000D01*
X165350000Y-94500000D02*
X166600000Y-94500000D01*
X166600000Y-94500000D02*
X166600000Y-93250000D01*
X157476666Y-94210000D02*
X157476666Y-88240000D01*
X157476666Y-88240000D02*
X149856666Y-88240000D01*
X149856666Y-88240000D02*
X149856666Y-94210000D01*
X149856666Y-94210000D02*
X157476666Y-94210000D01*
X154166666Y-94200000D02*
X154166666Y-93450000D01*
X154166666Y-93450000D02*
X153166666Y-93450000D01*
X153166666Y-93450000D02*
X153166666Y-94200000D01*
X153166666Y-94200000D02*
X154166666Y-94200000D01*
X157466666Y-94200000D02*
X157466666Y-93450000D01*
X157466666Y-93450000D02*
X155666666Y-93450000D01*
X155666666Y-93450000D02*
X155666666Y-94200000D01*
X155666666Y-94200000D02*
X157466666Y-94200000D01*
X151666666Y-94200000D02*
X151666666Y-93450000D01*
X151666666Y-93450000D02*
X149866666Y-93450000D01*
X149866666Y-93450000D02*
X149866666Y-94200000D01*
X149866666Y-94200000D02*
X151666666Y-94200000D01*
X157466666Y-91950000D02*
X156716666Y-91950000D01*
X156716666Y-91950000D02*
X156716666Y-89000000D01*
X156716666Y-89000000D02*
X153666666Y-89000000D01*
X149866666Y-91950000D02*
X150616666Y-91950000D01*
X150616666Y-91950000D02*
X150616666Y-89000000D01*
X150616666Y-89000000D02*
X153666666Y-89000000D01*
X156516666Y-94500000D02*
X157766666Y-94500000D01*
X157766666Y-94500000D02*
X157766666Y-93250000D01*
X168060000Y-101710000D02*
X168060000Y-95740000D01*
X168060000Y-95740000D02*
X160440000Y-95740000D01*
X160440000Y-95740000D02*
X160440000Y-101710000D01*
X160440000Y-101710000D02*
X168060000Y-101710000D01*
X164750000Y-101700000D02*
X164750000Y-100950000D01*
X164750000Y-100950000D02*
X163750000Y-100950000D01*
X163750000Y-100950000D02*
X163750000Y-101700000D01*
X163750000Y-101700000D02*
X164750000Y-101700000D01*
X168050000Y-101700000D02*
X168050000Y-100950000D01*
X168050000Y-100950000D02*
X166250000Y-100950000D01*
X166250000Y-100950000D02*
X166250000Y-101700000D01*
X166250000Y-101700000D02*
X168050000Y-101700000D01*
X162250000Y-101700000D02*
X162250000Y-100950000D01*
X162250000Y-100950000D02*
X160450000Y-100950000D01*
X160450000Y-100950000D02*
X160450000Y-101700000D01*
X160450000Y-101700000D02*
X162250000Y-101700000D01*
X168050000Y-99450000D02*
X167300000Y-99450000D01*
X167300000Y-99450000D02*
X167300000Y-96500000D01*
X167300000Y-96500000D02*
X164250000Y-96500000D01*
X160450000Y-99450000D02*
X161200000Y-99450000D01*
X161200000Y-99450000D02*
X161200000Y-96500000D01*
X161200000Y-96500000D02*
X164250000Y-96500000D01*
X167100000Y-102000000D02*
X168350000Y-102000000D01*
X168350000Y-102000000D02*
X168350000Y-100750000D01*
X156160000Y-101560000D02*
X156160000Y-95590000D01*
X156160000Y-95590000D02*
X143540000Y-95590000D01*
X143540000Y-95590000D02*
X143540000Y-101560000D01*
X143540000Y-101560000D02*
X156160000Y-101560000D01*
X152850000Y-101550000D02*
X152850000Y-100800000D01*
X152850000Y-100800000D02*
X146850000Y-100800000D01*
X146850000Y-100800000D02*
X146850000Y-101550000D01*
X146850000Y-101550000D02*
X152850000Y-101550000D01*
X156150000Y-101550000D02*
X156150000Y-100800000D01*
X156150000Y-100800000D02*
X154350000Y-100800000D01*
X154350000Y-100800000D02*
X154350000Y-101550000D01*
X154350000Y-101550000D02*
X156150000Y-101550000D01*
X145350000Y-101550000D02*
X145350000Y-100800000D01*
X145350000Y-100800000D02*
X143550000Y-100800000D01*
X143550000Y-100800000D02*
X143550000Y-101550000D01*
X143550000Y-101550000D02*
X145350000Y-101550000D01*
X156150000Y-99300000D02*
X155400000Y-99300000D01*
X155400000Y-99300000D02*
X155400000Y-96350000D01*
X155400000Y-96350000D02*
X149850000Y-96350000D01*
X143550000Y-99300000D02*
X144300000Y-99300000D01*
X144300000Y-99300000D02*
X144300000Y-96350000D01*
X144300000Y-96350000D02*
X149850000Y-96350000D01*
X155200000Y-101850000D02*
X156450000Y-101850000D01*
X156450000Y-101850000D02*
X156450000Y-100600000D01*
X154860220Y-108460219D02*
X154860220Y-102490219D01*
X154860220Y-102490219D02*
X147240220Y-102490219D01*
X147240220Y-102490219D02*
X147240220Y-108460219D01*
X147240220Y-108460219D02*
X154860220Y-108460219D01*
X151550220Y-108450219D02*
X151550220Y-107700219D01*
X151550220Y-107700219D02*
X150550220Y-107700219D01*
X150550220Y-107700219D02*
X150550220Y-108450219D01*
X150550220Y-108450219D02*
X151550220Y-108450219D01*
X154850220Y-108450219D02*
X154850220Y-107700219D01*
X154850220Y-107700219D02*
X153050220Y-107700219D01*
X153050220Y-107700219D02*
X153050220Y-108450219D01*
X153050220Y-108450219D02*
X154850220Y-108450219D01*
X149050220Y-108450219D02*
X149050220Y-107700219D01*
X149050220Y-107700219D02*
X147250220Y-107700219D01*
X147250220Y-107700219D02*
X147250220Y-108450219D01*
X147250220Y-108450219D02*
X149050220Y-108450219D01*
X154850220Y-106200219D02*
X154100220Y-106200219D01*
X154100220Y-106200219D02*
X154100220Y-103250219D01*
X154100220Y-103250219D02*
X151050220Y-103250219D01*
X147250220Y-106200219D02*
X148000220Y-106200219D01*
X148000220Y-106200219D02*
X148000220Y-103250219D01*
X148000220Y-103250219D02*
X151050220Y-103250219D01*
X153900220Y-108750219D02*
X155150220Y-108750219D01*
X155150220Y-108750219D02*
X155150220Y-107500219D01*
X139810000Y-94210000D02*
X139810000Y-88240000D01*
X139810000Y-88240000D02*
X132190000Y-88240000D01*
X132190000Y-88240000D02*
X132190000Y-94210000D01*
X132190000Y-94210000D02*
X139810000Y-94210000D01*
X136500000Y-94200000D02*
X136500000Y-93450000D01*
X136500000Y-93450000D02*
X135500000Y-93450000D01*
X135500000Y-93450000D02*
X135500000Y-94200000D01*
X135500000Y-94200000D02*
X136500000Y-94200000D01*
X139800000Y-94200000D02*
X139800000Y-93450000D01*
X139800000Y-93450000D02*
X138000000Y-93450000D01*
X138000000Y-93450000D02*
X138000000Y-94200000D01*
X138000000Y-94200000D02*
X139800000Y-94200000D01*
X134000000Y-94200000D02*
X134000000Y-93450000D01*
X134000000Y-93450000D02*
X132200000Y-93450000D01*
X132200000Y-93450000D02*
X132200000Y-94200000D01*
X132200000Y-94200000D02*
X134000000Y-94200000D01*
X139800000Y-91950000D02*
X139050000Y-91950000D01*
X139050000Y-91950000D02*
X139050000Y-89000000D01*
X139050000Y-89000000D02*
X136000000Y-89000000D01*
X132200000Y-91950000D02*
X132950000Y-91950000D01*
X132950000Y-91950000D02*
X132950000Y-89000000D01*
X132950000Y-89000000D02*
X136000000Y-89000000D01*
X138850000Y-94500000D02*
X140100000Y-94500000D01*
X140100000Y-94500000D02*
X140100000Y-93250000D01*
X141560000Y-101710000D02*
X141560000Y-95740000D01*
X141560000Y-95740000D02*
X133940000Y-95740000D01*
X133940000Y-95740000D02*
X133940000Y-101710000D01*
X133940000Y-101710000D02*
X141560000Y-101710000D01*
X138250000Y-101700000D02*
X138250000Y-100950000D01*
X138250000Y-100950000D02*
X137250000Y-100950000D01*
X137250000Y-100950000D02*
X137250000Y-101700000D01*
X137250000Y-101700000D02*
X138250000Y-101700000D01*
X141550000Y-101700000D02*
X141550000Y-100950000D01*
X141550000Y-100950000D02*
X139750000Y-100950000D01*
X139750000Y-100950000D02*
X139750000Y-101700000D01*
X139750000Y-101700000D02*
X141550000Y-101700000D01*
X135750000Y-101700000D02*
X135750000Y-100950000D01*
X135750000Y-100950000D02*
X133950000Y-100950000D01*
X133950000Y-100950000D02*
X133950000Y-101700000D01*
X133950000Y-101700000D02*
X135750000Y-101700000D01*
X141550000Y-99450000D02*
X140800000Y-99450000D01*
X140800000Y-99450000D02*
X140800000Y-96500000D01*
X140800000Y-96500000D02*
X137750000Y-96500000D01*
X133950000Y-99450000D02*
X134700000Y-99450000D01*
X134700000Y-99450000D02*
X134700000Y-96500000D01*
X134700000Y-96500000D02*
X137750000Y-96500000D01*
X140600000Y-102000000D02*
X141850000Y-102000000D01*
X141850000Y-102000000D02*
X141850000Y-100750000D01*
X148643333Y-94210000D02*
X148643333Y-88240000D01*
X148643333Y-88240000D02*
X141023333Y-88240000D01*
X141023333Y-88240000D02*
X141023333Y-94210000D01*
X141023333Y-94210000D02*
X148643333Y-94210000D01*
X145333333Y-94200000D02*
X145333333Y-93450000D01*
X145333333Y-93450000D02*
X144333333Y-93450000D01*
X144333333Y-93450000D02*
X144333333Y-94200000D01*
X144333333Y-94200000D02*
X145333333Y-94200000D01*
X148633333Y-94200000D02*
X148633333Y-93450000D01*
X148633333Y-93450000D02*
X146833333Y-93450000D01*
X146833333Y-93450000D02*
X146833333Y-94200000D01*
X146833333Y-94200000D02*
X148633333Y-94200000D01*
X142833333Y-94200000D02*
X142833333Y-93450000D01*
X142833333Y-93450000D02*
X141033333Y-93450000D01*
X141033333Y-93450000D02*
X141033333Y-94200000D01*
X141033333Y-94200000D02*
X142833333Y-94200000D01*
X148633333Y-91950000D02*
X147883333Y-91950000D01*
X147883333Y-91950000D02*
X147883333Y-89000000D01*
X147883333Y-89000000D02*
X144833333Y-89000000D01*
X141033333Y-91950000D02*
X141783333Y-91950000D01*
X141783333Y-91950000D02*
X141783333Y-89000000D01*
X141783333Y-89000000D02*
X144833333Y-89000000D01*
X147683333Y-94500000D02*
X148933333Y-94500000D01*
X148933333Y-94500000D02*
X148933333Y-93250000D01*
D10*
X137582600Y-77659742D02*
X138296886Y-77659742D01*
X138439743Y-77707361D01*
X138534981Y-77802599D01*
X138582600Y-77945457D01*
X138582600Y-78040695D01*
X138582600Y-76659742D02*
X138582600Y-77231171D01*
X138582600Y-76945457D02*
X137582600Y-76945457D01*
X137725458Y-77040695D01*
X137820696Y-77135933D01*
X137868315Y-77231171D01*
X137582600Y-76040695D02*
X137582600Y-75945457D01*
X137630220Y-75850219D01*
X137677839Y-75802599D01*
X137773077Y-75754980D01*
X137963553Y-75707361D01*
X138201648Y-75707361D01*
X138392124Y-75754980D01*
X138487362Y-75802599D01*
X138534981Y-75850219D01*
X138582600Y-75945457D01*
X138582600Y-76040695D01*
X138534981Y-76135933D01*
X138487362Y-76183552D01*
X138392124Y-76231171D01*
X138201648Y-76278790D01*
X137963553Y-76278790D01*
X137773077Y-76231171D01*
X137677839Y-76183552D01*
X137630220Y-76135933D01*
X137582600Y-76040695D01*
X164538095Y-103252380D02*
X164538095Y-102252380D01*
X164538095Y-102728571D02*
X165109523Y-102728571D01*
X165109523Y-103252380D02*
X165109523Y-102252380D01*
X165538095Y-102347619D02*
X165585714Y-102300000D01*
X165680952Y-102252380D01*
X165919047Y-102252380D01*
X166014285Y-102300000D01*
X166061904Y-102347619D01*
X166109523Y-102442857D01*
X166109523Y-102538095D01*
X166061904Y-102680952D01*
X165490476Y-103252380D01*
X166109523Y-103252380D01*
X133538095Y-72252380D02*
X133538095Y-71252380D01*
X133538095Y-71728571D02*
X134109523Y-71728571D01*
X134109523Y-72252380D02*
X134109523Y-71252380D01*
X135109523Y-72252380D02*
X134538095Y-72252380D01*
X134823809Y-72252380D02*
X134823809Y-71252380D01*
X134728571Y-71395238D01*
X134633333Y-71490476D01*
X134538095Y-71538095D01*
X162166666Y-89402380D02*
X162166666Y-90116666D01*
X162119047Y-90259523D01*
X162023809Y-90354761D01*
X161880952Y-90402380D01*
X161785714Y-90402380D01*
X163119047Y-89402380D02*
X162642857Y-89402380D01*
X162595238Y-89878571D01*
X162642857Y-89830952D01*
X162738095Y-89783333D01*
X162976190Y-89783333D01*
X163071428Y-89830952D01*
X163119047Y-89878571D01*
X163166666Y-89973809D01*
X163166666Y-90211904D01*
X163119047Y-90307142D01*
X163071428Y-90354761D01*
X162976190Y-90402380D01*
X162738095Y-90402380D01*
X162642857Y-90354761D01*
X162595238Y-90307142D01*
X153333332Y-89402380D02*
X153333332Y-90116666D01*
X153285713Y-90259523D01*
X153190475Y-90354761D01*
X153047618Y-90402380D01*
X152952380Y-90402380D01*
X153714285Y-89402380D02*
X154333332Y-89402380D01*
X153999999Y-89783333D01*
X154142856Y-89783333D01*
X154238094Y-89830952D01*
X154285713Y-89878571D01*
X154333332Y-89973809D01*
X154333332Y-90211904D01*
X154285713Y-90307142D01*
X154238094Y-90354761D01*
X154142856Y-90402380D01*
X153857142Y-90402380D01*
X153761904Y-90354761D01*
X153714285Y-90307142D01*
X163769666Y-96797380D02*
X163769666Y-97511666D01*
X163722047Y-97654523D01*
X163626809Y-97749761D01*
X163483952Y-97797380D01*
X163388714Y-97797380D01*
X164388714Y-97225952D02*
X164293476Y-97178333D01*
X164245857Y-97130714D01*
X164198238Y-97035476D01*
X164198238Y-96987857D01*
X164245857Y-96892619D01*
X164293476Y-96845000D01*
X164388714Y-96797380D01*
X164579190Y-96797380D01*
X164674428Y-96845000D01*
X164722047Y-96892619D01*
X164769666Y-96987857D01*
X164769666Y-97035476D01*
X164722047Y-97130714D01*
X164674428Y-97178333D01*
X164579190Y-97225952D01*
X164388714Y-97225952D01*
X164293476Y-97273571D01*
X164245857Y-97321190D01*
X164198238Y-97416428D01*
X164198238Y-97606904D01*
X164245857Y-97702142D01*
X164293476Y-97749761D01*
X164388714Y-97797380D01*
X164579190Y-97797380D01*
X164674428Y-97749761D01*
X164722047Y-97702142D01*
X164769666Y-97606904D01*
X164769666Y-97416428D01*
X164722047Y-97321190D01*
X164674428Y-97273571D01*
X164579190Y-97225952D01*
X149456666Y-96520380D02*
X149456666Y-97234666D01*
X149409047Y-97377523D01*
X149313809Y-97472761D01*
X149170952Y-97520380D01*
X149075714Y-97520380D01*
X149885238Y-96615619D02*
X149932857Y-96568000D01*
X150028095Y-96520380D01*
X150266190Y-96520380D01*
X150361428Y-96568000D01*
X150409047Y-96615619D01*
X150456666Y-96710857D01*
X150456666Y-96806095D01*
X150409047Y-96948952D01*
X149837619Y-97520380D01*
X150456666Y-97520380D01*
X150867106Y-103552599D02*
X150867106Y-104266885D01*
X150819487Y-104409742D01*
X150724249Y-104504980D01*
X150581392Y-104552599D01*
X150486154Y-104552599D01*
X151390916Y-104552599D02*
X151581392Y-104552599D01*
X151676630Y-104504980D01*
X151724249Y-104457361D01*
X151819487Y-104314504D01*
X151867106Y-104124028D01*
X151867106Y-103743076D01*
X151819487Y-103647838D01*
X151771868Y-103600219D01*
X151676630Y-103552599D01*
X151486154Y-103552599D01*
X151390916Y-103600219D01*
X151343297Y-103647838D01*
X151295678Y-103743076D01*
X151295678Y-103981171D01*
X151343297Y-104076409D01*
X151390916Y-104124028D01*
X151486154Y-104171647D01*
X151676630Y-104171647D01*
X151771868Y-104124028D01*
X151819487Y-104076409D01*
X151867106Y-103981171D01*
X135646666Y-89297380D02*
X135646666Y-90011666D01*
X135599047Y-90154523D01*
X135503809Y-90249761D01*
X135360952Y-90297380D01*
X135265714Y-90297380D01*
X136551428Y-89297380D02*
X136360952Y-89297380D01*
X136265714Y-89345000D01*
X136218095Y-89392619D01*
X136122857Y-89535476D01*
X136075238Y-89725952D01*
X136075238Y-90106904D01*
X136122857Y-90202142D01*
X136170476Y-90249761D01*
X136265714Y-90297380D01*
X136456190Y-90297380D01*
X136551428Y-90249761D01*
X136599047Y-90202142D01*
X136646666Y-90106904D01*
X136646666Y-89868809D01*
X136599047Y-89773571D01*
X136551428Y-89725952D01*
X136456190Y-89678333D01*
X136265714Y-89678333D01*
X136170476Y-89725952D01*
X136122857Y-89773571D01*
X136075238Y-89868809D01*
X137396666Y-96924380D02*
X137396666Y-97638666D01*
X137349047Y-97781523D01*
X137253809Y-97876761D01*
X137110952Y-97924380D01*
X137015714Y-97924380D01*
X138301428Y-97257714D02*
X138301428Y-97924380D01*
X138063333Y-96876761D02*
X137825238Y-97591047D01*
X138444285Y-97591047D01*
X144479999Y-89377380D02*
X144479999Y-90091666D01*
X144432380Y-90234523D01*
X144337142Y-90329761D01*
X144194285Y-90377380D01*
X144099047Y-90377380D01*
X144860952Y-89377380D02*
X145527618Y-89377380D01*
X145099047Y-90377380D01*
%LPC*%
D14*
X158550220Y-75820219D03*
X141050220Y-75820219D03*
X158550220Y-83000219D03*
X156050220Y-83000219D03*
X153550220Y-83000219D03*
X151050220Y-83000219D03*
X148550220Y-83000219D03*
X146050220Y-83000219D03*
X143550220Y-83000219D03*
X141050220Y-83000219D03*
X158550220Y-85500219D03*
X156050220Y-85500219D03*
X153550220Y-85500219D03*
X151050220Y-85500219D03*
X148550220Y-85500219D03*
X146050220Y-85500219D03*
X143550220Y-85500219D03*
G36*
G01*
X141686220Y-86401219D02*
X140414220Y-86401219D01*
G75*
G02*
X140149220Y-86136219I0J265000D01*
G01*
X140149220Y-84864219D01*
G75*
G02*
X140414220Y-84599219I265000J0D01*
G01*
X141686220Y-84599219D01*
G75*
G02*
X141951220Y-84864219I0J-265000D01*
G01*
X141951220Y-86136219D01*
G75*
G02*
X141686220Y-86401219I-265000J0D01*
G01*
G37*
D15*
X165300000Y-107000000D03*
X134300000Y-76000000D03*
D16*
X161250000Y-91750000D03*
G36*
G01*
X164651000Y-90964000D02*
X164651000Y-92536000D01*
G75*
G02*
X164386000Y-92801000I-265000J0D01*
G01*
X163114000Y-92801000D01*
G75*
G02*
X162849000Y-92536000I0J265000D01*
G01*
X162849000Y-90964000D01*
G75*
G02*
X163114000Y-90699000I265000J0D01*
G01*
X164386000Y-90699000D01*
G75*
G02*
X164651000Y-90964000I0J-265000D01*
G01*
G37*
X152416666Y-91750000D03*
G36*
G01*
X155817666Y-90964000D02*
X155817666Y-92536000D01*
G75*
G02*
X155552666Y-92801000I-265000J0D01*
G01*
X154280666Y-92801000D01*
G75*
G02*
X154015666Y-92536000I0J265000D01*
G01*
X154015666Y-90964000D01*
G75*
G02*
X154280666Y-90699000I265000J0D01*
G01*
X155552666Y-90699000D01*
G75*
G02*
X155817666Y-90964000I0J-265000D01*
G01*
G37*
X163000000Y-99250000D03*
G36*
G01*
X166401000Y-98464000D02*
X166401000Y-100036000D01*
G75*
G02*
X166136000Y-100301000I-265000J0D01*
G01*
X164864000Y-100301000D01*
G75*
G02*
X164599000Y-100036000I0J265000D01*
G01*
X164599000Y-98464000D01*
G75*
G02*
X164864000Y-98199000I265000J0D01*
G01*
X166136000Y-98199000D01*
G75*
G02*
X166401000Y-98464000I0J-265000D01*
G01*
G37*
D17*
X146100000Y-99100000D03*
X148600000Y-99100000D03*
X151100000Y-99100000D03*
G36*
G01*
X154501000Y-98339000D02*
X154501000Y-99861000D01*
G75*
G02*
X154236000Y-100126000I-265000J0D01*
G01*
X152964000Y-100126000D01*
G75*
G02*
X152699000Y-99861000I0J265000D01*
G01*
X152699000Y-98339000D01*
G75*
G02*
X152964000Y-98074000I265000J0D01*
G01*
X154236000Y-98074000D01*
G75*
G02*
X154501000Y-98339000I0J-265000D01*
G01*
G37*
D16*
X149800220Y-106000219D03*
G36*
G01*
X153201220Y-105214219D02*
X153201220Y-106786219D01*
G75*
G02*
X152936220Y-107051219I-265000J0D01*
G01*
X151664220Y-107051219D01*
G75*
G02*
X151399220Y-106786219I0J265000D01*
G01*
X151399220Y-105214219D01*
G75*
G02*
X151664220Y-104949219I265000J0D01*
G01*
X152936220Y-104949219D01*
G75*
G02*
X153201220Y-105214219I0J-265000D01*
G01*
G37*
X134750000Y-91750000D03*
G36*
G01*
X138151000Y-90964000D02*
X138151000Y-92536000D01*
G75*
G02*
X137886000Y-92801000I-265000J0D01*
G01*
X136614000Y-92801000D01*
G75*
G02*
X136349000Y-92536000I0J265000D01*
G01*
X136349000Y-90964000D01*
G75*
G02*
X136614000Y-90699000I265000J0D01*
G01*
X137886000Y-90699000D01*
G75*
G02*
X138151000Y-90964000I0J-265000D01*
G01*
G37*
X136500000Y-99250000D03*
G36*
G01*
X139901000Y-98464000D02*
X139901000Y-100036000D01*
G75*
G02*
X139636000Y-100301000I-265000J0D01*
G01*
X138364000Y-100301000D01*
G75*
G02*
X138099000Y-100036000I0J265000D01*
G01*
X138099000Y-98464000D01*
G75*
G02*
X138364000Y-98199000I265000J0D01*
G01*
X139636000Y-98199000D01*
G75*
G02*
X139901000Y-98464000I0J-265000D01*
G01*
G37*
X143583333Y-91750000D03*
G36*
G01*
X146984333Y-90964000D02*
X146984333Y-92536000D01*
G75*
G02*
X146719333Y-92801000I-265000J0D01*
G01*
X145447333Y-92801000D01*
G75*
G02*
X145182333Y-92536000I0J265000D01*
G01*
X145182333Y-90964000D01*
G75*
G02*
X145447333Y-90699000I265000J0D01*
G01*
X146719333Y-90699000D01*
G75*
G02*
X146984333Y-90964000I0J-265000D01*
G01*
G37*
M02*
