G04 #@! TF.GenerationSoftware,KiCad,Pcbnew,(5.1.12)-1*
G04 #@! TF.CreationDate,2021-12-28T23:10:20+01:00*
G04 #@! TF.ProjectId,Toolhead_PCB,546f6f6c-6865-4616-945f-5043422e6b69,rev?*
G04 #@! TF.SameCoordinates,Original*
G04 #@! TF.FileFunction,Legend,Bot*
G04 #@! TF.FilePolarity,Positive*
%FSLAX46Y46*%
G04 Gerber Fmt 4.6, Leading zero omitted, Abs format (unit mm)*
G04 Created by KiCad (PCBNEW (5.1.12)-1) date 2021-12-28 23:10:21*
%MOMM*%
%LPD*%
G01*
G04 APERTURE LIST*
%ADD10C,1.802000*%
%ADD11C,3.302000*%
%ADD12O,1.802000X2.102000*%
%ADD13O,1.802000X2.052000*%
G04 APERTURE END LIST*
%LPC*%
D10*
X158550220Y-75820219D03*
X141050220Y-75820219D03*
X158550220Y-83000219D03*
X156050220Y-83000219D03*
X153550220Y-83000219D03*
X151050220Y-83000219D03*
X148550220Y-83000219D03*
X146050220Y-83000219D03*
X143550220Y-83000219D03*
X141050220Y-83000219D03*
X158550220Y-85500219D03*
X156050220Y-85500219D03*
X153550220Y-85500219D03*
X151050220Y-85500219D03*
X148550220Y-85500219D03*
X146050220Y-85500219D03*
X143550220Y-85500219D03*
G36*
G01*
X141686220Y-86401219D02*
X140414220Y-86401219D01*
G75*
G02*
X140149220Y-86136219I0J265000D01*
G01*
X140149220Y-84864219D01*
G75*
G02*
X140414220Y-84599219I265000J0D01*
G01*
X141686220Y-84599219D01*
G75*
G02*
X141951220Y-84864219I0J-265000D01*
G01*
X141951220Y-86136219D01*
G75*
G02*
X141686220Y-86401219I-265000J0D01*
G01*
G37*
D11*
X165300000Y-107000000D03*
X134300000Y-76000000D03*
D12*
X161250000Y-91750000D03*
G36*
G01*
X164651000Y-90964000D02*
X164651000Y-92536000D01*
G75*
G02*
X164386000Y-92801000I-265000J0D01*
G01*
X163114000Y-92801000D01*
G75*
G02*
X162849000Y-92536000I0J265000D01*
G01*
X162849000Y-90964000D01*
G75*
G02*
X163114000Y-90699000I265000J0D01*
G01*
X164386000Y-90699000D01*
G75*
G02*
X164651000Y-90964000I0J-265000D01*
G01*
G37*
X152416666Y-91750000D03*
G36*
G01*
X155817666Y-90964000D02*
X155817666Y-92536000D01*
G75*
G02*
X155552666Y-92801000I-265000J0D01*
G01*
X154280666Y-92801000D01*
G75*
G02*
X154015666Y-92536000I0J265000D01*
G01*
X154015666Y-90964000D01*
G75*
G02*
X154280666Y-90699000I265000J0D01*
G01*
X155552666Y-90699000D01*
G75*
G02*
X155817666Y-90964000I0J-265000D01*
G01*
G37*
X163000000Y-99250000D03*
G36*
G01*
X166401000Y-98464000D02*
X166401000Y-100036000D01*
G75*
G02*
X166136000Y-100301000I-265000J0D01*
G01*
X164864000Y-100301000D01*
G75*
G02*
X164599000Y-100036000I0J265000D01*
G01*
X164599000Y-98464000D01*
G75*
G02*
X164864000Y-98199000I265000J0D01*
G01*
X166136000Y-98199000D01*
G75*
G02*
X166401000Y-98464000I0J-265000D01*
G01*
G37*
D13*
X146100000Y-99100000D03*
X148600000Y-99100000D03*
X151100000Y-99100000D03*
G36*
G01*
X154501000Y-98339000D02*
X154501000Y-99861000D01*
G75*
G02*
X154236000Y-100126000I-265000J0D01*
G01*
X152964000Y-100126000D01*
G75*
G02*
X152699000Y-99861000I0J265000D01*
G01*
X152699000Y-98339000D01*
G75*
G02*
X152964000Y-98074000I265000J0D01*
G01*
X154236000Y-98074000D01*
G75*
G02*
X154501000Y-98339000I0J-265000D01*
G01*
G37*
D12*
X149800220Y-106000219D03*
G36*
G01*
X153201220Y-105214219D02*
X153201220Y-106786219D01*
G75*
G02*
X152936220Y-107051219I-265000J0D01*
G01*
X151664220Y-107051219D01*
G75*
G02*
X151399220Y-106786219I0J265000D01*
G01*
X151399220Y-105214219D01*
G75*
G02*
X151664220Y-104949219I265000J0D01*
G01*
X152936220Y-104949219D01*
G75*
G02*
X153201220Y-105214219I0J-265000D01*
G01*
G37*
X134750000Y-91750000D03*
G36*
G01*
X138151000Y-90964000D02*
X138151000Y-92536000D01*
G75*
G02*
X137886000Y-92801000I-265000J0D01*
G01*
X136614000Y-92801000D01*
G75*
G02*
X136349000Y-92536000I0J265000D01*
G01*
X136349000Y-90964000D01*
G75*
G02*
X136614000Y-90699000I265000J0D01*
G01*
X137886000Y-90699000D01*
G75*
G02*
X138151000Y-90964000I0J-265000D01*
G01*
G37*
X136500000Y-99250000D03*
G36*
G01*
X139901000Y-98464000D02*
X139901000Y-100036000D01*
G75*
G02*
X139636000Y-100301000I-265000J0D01*
G01*
X138364000Y-100301000D01*
G75*
G02*
X138099000Y-100036000I0J265000D01*
G01*
X138099000Y-98464000D01*
G75*
G02*
X138364000Y-98199000I265000J0D01*
G01*
X139636000Y-98199000D01*
G75*
G02*
X139901000Y-98464000I0J-265000D01*
G01*
G37*
X143583333Y-91750000D03*
G36*
G01*
X146984333Y-90964000D02*
X146984333Y-92536000D01*
G75*
G02*
X146719333Y-92801000I-265000J0D01*
G01*
X145447333Y-92801000D01*
G75*
G02*
X145182333Y-92536000I0J265000D01*
G01*
X145182333Y-90964000D01*
G75*
G02*
X145447333Y-90699000I265000J0D01*
G01*
X146719333Y-90699000D01*
G75*
G02*
X146984333Y-90964000I0J-265000D01*
G01*
G37*
M02*
