G04 #@! TF.GenerationSoftware,KiCad,Pcbnew,(5.1.12)-1*
G04 #@! TF.CreationDate,2022-01-06T15:04:26+01:00*
G04 #@! TF.ProjectId,V0-UmbilicalBoard,56302d55-6d62-4696-9c69-63616c426f61,rev?*
G04 #@! TF.SameCoordinates,Original*
G04 #@! TF.FileFunction,Legend,Top*
G04 #@! TF.FilePolarity,Positive*
%FSLAX46Y46*%
G04 Gerber Fmt 4.6, Leading zero omitted, Abs format (unit mm)*
G04 Created by KiCad (PCBNEW (5.1.12)-1) date 2022-01-06 15:04:26*
%MOMM*%
%LPD*%
G01*
G04 APERTURE LIST*
%ADD10C,0.125000*%
%ADD11C,0.120000*%
%ADD12C,0.150000*%
G04 APERTURE END LIST*
D10*
X95380952Y-102326190D02*
X95380952Y-102683333D01*
X95333333Y-102754761D01*
X95238095Y-102802380D01*
X95095238Y-102826190D01*
X95000000Y-102826190D01*
X96333333Y-102826190D02*
X95857142Y-102826190D01*
X95857142Y-102326190D01*
X97238095Y-102778571D02*
X97190476Y-102802380D01*
X97047619Y-102826190D01*
X96952380Y-102826190D01*
X96809523Y-102802380D01*
X96714285Y-102754761D01*
X96666666Y-102707142D01*
X96619047Y-102611904D01*
X96619047Y-102540476D01*
X96666666Y-102445238D01*
X96714285Y-102397619D01*
X96809523Y-102350000D01*
X96952380Y-102326190D01*
X97047619Y-102326190D01*
X97190476Y-102350000D01*
X97238095Y-102373809D01*
X97952380Y-102326190D02*
X97952380Y-102683333D01*
X97904761Y-102754761D01*
X97809523Y-102802380D01*
X97666666Y-102826190D01*
X97571428Y-102826190D01*
X98904761Y-102826190D02*
X98428571Y-102826190D01*
X98428571Y-102326190D01*
X99809523Y-102778571D02*
X99761904Y-102802380D01*
X99619047Y-102826190D01*
X99523809Y-102826190D01*
X99380952Y-102802380D01*
X99285714Y-102754761D01*
X99238095Y-102707142D01*
X99190476Y-102611904D01*
X99190476Y-102540476D01*
X99238095Y-102445238D01*
X99285714Y-102397619D01*
X99380952Y-102350000D01*
X99523809Y-102326190D01*
X99619047Y-102326190D01*
X99761904Y-102350000D01*
X99809523Y-102373809D01*
X100523809Y-102326190D02*
X100523809Y-102683333D01*
X100476190Y-102754761D01*
X100380952Y-102802380D01*
X100238095Y-102826190D01*
X100142857Y-102826190D01*
X101476190Y-102826190D02*
X101000000Y-102826190D01*
X101000000Y-102326190D01*
X102380952Y-102778571D02*
X102333333Y-102802380D01*
X102190476Y-102826190D01*
X102095238Y-102826190D01*
X101952380Y-102802380D01*
X101857142Y-102754761D01*
X101809523Y-102707142D01*
X101761904Y-102611904D01*
X101761904Y-102540476D01*
X101809523Y-102445238D01*
X101857142Y-102397619D01*
X101952380Y-102350000D01*
X102095238Y-102326190D01*
X102190476Y-102326190D01*
X102333333Y-102350000D01*
X102380952Y-102373809D01*
X103095238Y-102326190D02*
X103095238Y-102683333D01*
X103047619Y-102754761D01*
X102952380Y-102802380D01*
X102809523Y-102826190D01*
X102714285Y-102826190D01*
X104047619Y-102826190D02*
X103571428Y-102826190D01*
X103571428Y-102326190D01*
X104952380Y-102778571D02*
X104904761Y-102802380D01*
X104761904Y-102826190D01*
X104666666Y-102826190D01*
X104523809Y-102802380D01*
X104428571Y-102754761D01*
X104380952Y-102707142D01*
X104333333Y-102611904D01*
X104333333Y-102540476D01*
X104380952Y-102445238D01*
X104428571Y-102397619D01*
X104523809Y-102350000D01*
X104666666Y-102326190D01*
X104761904Y-102326190D01*
X104904761Y-102350000D01*
X104952380Y-102373809D01*
D11*
X110880000Y-96600000D02*
X108750000Y-96600000D01*
X110880000Y-98750000D02*
X110880000Y-96600000D01*
X97290000Y-94040000D02*
X100000000Y-94040000D01*
X97290000Y-96900000D02*
X97290000Y-94040000D01*
X89420000Y-96900000D02*
X97290000Y-96900000D01*
X89420000Y-103100000D02*
X89420000Y-96900000D01*
X100000000Y-103100000D02*
X89420000Y-103100000D01*
X102710000Y-94040000D02*
X100000000Y-94040000D01*
X102710000Y-96900000D02*
X102710000Y-94040000D01*
X110580000Y-96900000D02*
X102710000Y-96900000D01*
X110580000Y-103100000D02*
X110580000Y-96900000D01*
X100000000Y-103100000D02*
X110580000Y-103100000D01*
X99772936Y-110235000D02*
X100227064Y-110235000D01*
X99772936Y-108765000D02*
X100227064Y-108765000D01*
D12*
X111122380Y-100809523D02*
X111836666Y-100809523D01*
X111979523Y-100857142D01*
X112074761Y-100952380D01*
X112122380Y-101095238D01*
X112122380Y-101190476D01*
X112122380Y-99809523D02*
X112122380Y-100380952D01*
X112122380Y-100095238D02*
X111122380Y-100095238D01*
X111265238Y-100190476D01*
X111360476Y-100285714D01*
X111408095Y-100380952D01*
X111122380Y-99476190D02*
X111122380Y-98857142D01*
X111503333Y-99190476D01*
X111503333Y-99047619D01*
X111550952Y-98952380D01*
X111598571Y-98904761D01*
X111693809Y-98857142D01*
X111931904Y-98857142D01*
X112027142Y-98904761D01*
X112074761Y-98952380D01*
X112122380Y-99047619D01*
X112122380Y-99333333D01*
X112074761Y-99428571D01*
X112027142Y-99476190D01*
X98714285Y-107302380D02*
X99285714Y-107302380D01*
X99000000Y-108302380D02*
X99000000Y-107302380D01*
X99619047Y-108302380D02*
X99619047Y-107302380D01*
X99619047Y-107778571D02*
X100190476Y-107778571D01*
X100190476Y-108302380D02*
X100190476Y-107302380D01*
X101190476Y-108302380D02*
X100619047Y-108302380D01*
X100904761Y-108302380D02*
X100904761Y-107302380D01*
X100809523Y-107445238D01*
X100714285Y-107540476D01*
X100619047Y-107588095D01*
M02*
