M48
METRIC,TZ
T1C0.950
T2C1.000
T3C1.200
T4C1.300
%
G90
G05
T1
X55000Y-96250
X55000Y-98750
X55000Y-101250
X55000Y-103750
X64928Y-108890
X67428Y-108890
X69928Y-108890
X107500Y-109000
X110000Y-109000
X112500Y-109000
X119500Y-109000
X122000Y-109000
X124500Y-109000
X127000Y-109000
X131000Y-90000
X133500Y-90000
X136000Y-90000
X145000Y-96250
X145000Y-98750
X145000Y-101250
X145000Y-103750
T2
X62500Y-91110
X65000Y-91110
X72000Y-91110
X74500Y-91110
X81500Y-91110
X84000Y-91110
X120000Y-90000
X122500Y-90000
X134000Y-109000
X136500Y-109000
T3
X91250Y-98750
X91250Y-101250
X93750Y-98750
X93750Y-101250
X96250Y-98750
X96250Y-101250
X98750Y-98750
X98750Y-101250
X101250Y-98750
X101250Y-101250
X103750Y-98750
X103750Y-101250
X106250Y-98750
X106250Y-101250
X108750Y-98750
X108750Y-101250
T4
X77420Y-109000
X82500Y-109000
T0
M30
